# xmcd CD database file
#
# Track frame offsets:
#	150
#	21383
#	42306
#	67095
#	87812
#	102540
#	121278
#	142415
#	163276
#
# Disc length: 2327 seconds
#
# Revision: 0
# Processed by: cddbd v1.5.2PL0 Copyright (c) Steve Scherf et al.
# Submitted via: CDex 1.70beta1
#
DISCID=89091509
DTITLE=Eduardo Macedo - Só assim
DYEAR=2006
DGENRE=Jazz
TTITLE0=Eu sou o samba soul
TTITLE1=Jogno de crioulo
TTITLE2=Claro
TTITLE3=Só assim
TTITLE4=Morá no ceará
TTITLE5=Cristina
TTITLE6=Litle Prayer
TTITLE7=Havana affair
TTITLE8=Isabel
EXTD=YEAR: 2006
EXTT0=
EXTT1=
EXTT2=
EXTT3=
EXTT4=
EXTT5=
EXTT6=
EXTT7=
EXTT8=
PLAYORDER=
